<?xml version="1.0" encoding="UTF-8" standalone="no"?>
<svg id="svg3360" xmlns="http://www.w3.org/2000/svg" height="64" viewBox="0 0 64 64" width="64" version="1.1">
 <path id="path3442" d="m25.5 56.506c-5.319-1.228-11.4-4.15-15.5-7.45l-2.5-2.0118 2.691-0.02224c4.022-0.03323 4.3241-1.7667 0.59933-3.4388-1.8094-0.812-4.0205-2.071-4.9134-2.798-2.3553-1.916-5.8685-7.981-5.8729-10.139-0.0031244-1.568 0.54065-1.375 3.5311 1.25 5.5405 4.865 7.1342 3.89 3.4689-2.122-4.564-7.485-1.5645-16.508 7.0483-21.201l5.371-2.9263-2.211 2.8115c-2.9524 3.7534-2.8362 8.8002 0.32697 14.198 2.1124 3.6045 2.3448 4.6936 1.3846 6.4877-0.63464 1.1858-1.1539 4.3861-1.1539 7.1116 0 5.9303 3.4733 11.563 9.927 16.099l4.1404 2.91 3.5118-2.1704c8.985-5.555 12.925-13.998 10.256-21.979-1.435-4.289-1.417-4.793 0.253-7.116 4.377-6.089 4.636-11.54 0.754-15.838l-2.112-2.3383 3 1.2894c4.9715 2.1368 8.4471 4.8839 10.015 7.9161 2.1028 4.0663 1.8646 10.836-0.51883 14.745-3.7203 6.1018-1.6444 7.1696 3.8411 1.9758l3.4326-3.25-0.60913 3.2457c-0.91588 4.8802-3.4602 8.0992-8.8221 11.162-5.0374 2.877-5.3063 4.0772-0.92204 4.115l2.584 0.021-2.5 2.014c-8.4724 6.8231-19.137 9.6103-28.5 7.4486zm2.723-35.063c-2.829-1.981-2.941-6.725-0.223-9.443 2.403-2.4026 4.786-2.5385 7.777-0.443 4.519 3.165 1.786 11.443-3.777 11.443-0.855 0-2.555-0.701-3.777-1.557z"/>
</svg>
