<?xml version="1.0" encoding="UTF-8" standalone="no"?>
<svg id="svg3360" xmlns="http://www.w3.org/2000/svg" height="64" viewBox="0 0 64 64" width="64" version="1.1">
	<path id="path3555" d="m20.51 58.46c-5.35-1.89-12.61-8.29-16.03-14.12-2.146-3.66-2.753-6.17-3.101-12.79-0.378-7.21-0.12-8.93 2.057-13.68 5.259-11.49 15.05-17.74 27.8-17.76 9.441-0.01221 15.88 2.895 22.35 10.1 5.783 6.432 7.999 12.98 7.365 21.78-1.167 16.19-13.92 28.2-29.77 28.03-3.575-0.03805-8.379-0.735-10.68-1.549zm19.18-9.227c15.76-7.162 16.71-29.82 1.584-37.81-7.642-4.034-18.85-2.699-24.93 2.971-4.588 4.28-6.409 9.395-5.99 16.82 0.3137 5.553 0.9264 7.564 3.354 11.01 5.753 8.168 16.84 11.16 25.98 7.005z"/>
</svg>
