<?xml version="1.0" encoding="UTF-8" standalone="no"?>
<svg id="svg3360" xmlns="http://www.w3.org/2000/svg" height="64" viewBox="0 0 64 64" width="64" version="1.1">
	<path id="path3481" d="m33.462 53.373-4.7327-9.3137-9.3931 5.0637c-5.1662 2.785-9.5852 5.0637-9.82 5.0637-0.23482 0 1.5228-3.7125 3.9059-8.25 2.383-4.5375 4.3459-8.8167 4.362-9.5093 0.01606-0.69264-2.8958-2.7017-6.4708-4.4646s-6.5-3.497-6.5-3.8535c0-0.35649 3.4875-1.2074 7.75-1.8909 4.2625-0.68351 8.0647-1.4327 8.4493-1.6649 0.38459-0.23216-1.7529-5.6409-4.75-12.019-2.996-6.3787-5.448-11.851-5.448-12.16 0-0.3092 4.5279 3.8864 10.062 9.3235l10.062 9.8857 2.8364-4.4485c1.56-2.4467 4.2236-6.6985 5.919-9.4485l3.0826-5 0.019 5.6104c0.0105 3.0857 0.30516 7.6982 0.65492 10.25l0.63593 4.6396h8.3641c4.6002 0 8.3446 0.3375 8.3208 0.75s-3.1693 2.9552-6.99 5.6505l-6.9466 4.9005 5.6559 6.4422 5.6559 6.4422-5.9159-0.78111c-11.456-1.5126-10.724-1.9285-12.08 6.8674-0.65882 4.2744-1.3682 8.5494-1.5763 9.5-0.23093 1.0546-2.2234-1.9023-5.1112-7.5853zm3.2909-10.925c0.61349-3.6722 0.72789-3.759 4.8444-3.6747 2.3188 0.04747 4.216-0.15291 4.216-0.44528 0-0.29238-1.2314-1.8169-2.7365-3.3879l-2.7365-2.8563 3.9865-3.4109 3.9865-3.4109-4.6925-0.03755-4.6925-0.03755-0.30749-4.219-0.3075-4.219-3.0568 4.7159-3.0568 4.7159-3.3893-3.4969c-4.4489-4.5901-5.5121-4.4269-3.0173 0.46327 1.1112 2.1781 2.0203 4.1755 2.0203 4.4387 0 0.26321-2.025 0.78223-4.5 1.1534-5.2552 0.78806-5.6622 1.7237-1.5 3.4477 1.65 0.68345 3 1.431 3 1.6612 0 0.23018-0.9 2.1827-2 4.3388-1.1 2.1562-2 4.2017-2 4.5457 0 0.34393 2.0745-0.53412 4.61-1.9512s4.9323-2.3773 5.3264-2.1338c0.39401 0.24351 1.5399 2.2691 2.5465 4.5013 2.0927 4.6408 2.5809 4.5418 3.4568-0.70084z"/>
</svg>
