<?xml version="1.0" encoding="UTF-8" standalone="no"?>
<svg id="svg3709" xmlns="http://www.w3.org/2000/svg" height="297mm" viewBox="0 0 744.09448819 1052.3622047" width="210mm" version="1.1">
	<path id="path3817" d="m17.86 54.39c0-0.3023 0.6965-1.897 1.548-3.543 1.526-2.95 1.651-2.989 8.698-2.7 6.888 0.2821 7.219 0.4118 9.044 3.543l1.894 3.25h-10.59c-5.826 0-10.59-0.2474-10.59-0.5497zm25.39-6.758c-1.692-3.548-1.689-3.567 1.749-9.374 3.106-5.245 3.81-5.849 7.153-6.129 2.039-0.1707 3.708-0.0287 3.708 0.3155 0 0.5598-9.718 17.45-10.57 18.37-0.1904 0.2056-1.109-1.226-2.042-3.182zm-37.94-5.942c-2.597-4.538-4.913-8.588-5.147-9-0.2338-0.4125 1.36-0.75 3.543-0.75 3.825 0 4.094 0.2248 7.466 6.229 3.279 5.837 3.409 6.403 2.066 9-0.7882 1.524-1.832 2.771-2.32 2.771-0.4877 0-3.011-3.712-5.608-8.25zm12.2-7-3.525-6.25 2.573-4.5c4.361-7.629 4.913-8 11.9-8h6.297l3.662 6.248 3.662 6.248-2.762 5.002c-4.19 7.588-4.059 7.502-11.5 7.502h-6.786l-3.525-6.25zm17.06-1.648c2.836-4.222 2.836-4.983-0.002-9.204-3.874-5.762-10.49-5.227-13.72 1.111l-2.029 3.977 2.564 4.062c2.407 3.813 2.82 4.043 6.734 3.757 3.464-0.2535 4.556-0.8801 6.453-3.703zm-33.5-10.35c0.7971-1.238 3.138-5.288 5.201-9 2.064-3.712 4.066-6.75 4.45-6.75 0.3841 0 1.442 1.259 2.351 2.798 1.607 2.721 1.557 2.969-1.842 9-3.386 6.009-3.621 6.202-7.552 6.202-3.97 0-4.026-0.0483-2.608-2.25zm43.78-4.099-3.392-6.349 2.006-3.168 2.006-3.168 4.938 8.715c2.716 4.793 5.088 9.076 5.272 9.517 0.1833 0.4409-1.415 0.8016-3.552 0.8016-3.749 0-4.004-0.2218-7.277-6.349zm-25.48-12.6c-0.8391-1.623-1.526-3.198-1.526-3.5 0-0.3023 4.718-0.5497 10.48-0.5497h10.48l-1.669 3.5-1.669 3.5h-7.289c-7.06 0-7.337-0.0926-8.815-2.95z"/>
</svg>
