<?xml version="1.0" encoding="UTF-8" standalone="no"?>
<svg id="svg3360" xmlns="http://www.w3.org/2000/svg" height="64" viewBox="0 0 64 64" width="64" version="1.1">
	<path id="path3542" d="m27.46 61.71c0-1.871-0.8249-2.513-4.49-3.493-9.04-2.42-17.54-13.85-17.49-23.5 0.054-10.49 9.27-21.46 20.23-24.1 2.543-0.6113 2.75-1.035 2.75-5.642 0-4.314 0.2677-4.981 2-4.981s2 0.6667 2 4.981c0 4.607 0.2065 5.031 2.75 5.642 7.645 1.837 14.87 7.86 17.85 14.88 1.028 2.425 1.668 6.462 1.625 10.25-0.0391 3.438 0.3453 6.25 0.8542 6.25s0.9252 0.45 0.9252 1-0.6383 1-1.418 1c-0.7801 0-2.327 1.47-3.438 3.267s-3.14 4.32-4.509 5.606c-1.508 1.417-2.253 2.957-1.889 3.907 0.4481 1.168 0.164 1.399-1.115 0.9087-2.776-1.065-10.63 1.456-10.63 3.412 0 1.687-1.916 2.9-4.582 2.9-0.8119 0-1.418-0.9802-1.418-2.293zm0-10.31v-4.599l-3.626 2.139c-4.47 2.637-5.24 2.083-2.483-1.789 1.16-1.629 2.109-3.391 2.109-3.916 0-0.5247-2.517-2.625-5.594-4.668s-5.333-3.975-5.014-4.294c0.3188-0.3188 3.531 0.2192 7.138 1.196 3.607 0.9764 6.715 1.607 6.907 1.402 0.7578-0.8096 1.044-22.87 0.2972-22.87-0.4389 0-2.471 0.6989-4.516 1.553-14.18 5.923-17.59 24.32-6.457 34.78 2.318 2.177 8.048 5.111 10.99 5.627 0.1375 0.02414 0.25-2.026 0.25-4.555zm10.14 2.049c-0.004-0.5228-0.9377-1.568-2.074-2.322-1.939-1.287-2.066-1.181-2.066 1.718 0 2.707 0.2573 2.995 2.074 2.322 1.141-0.422 2.071-1.195 2.066-1.718zm8.759-5.145c1.675-2.032 2.925-3.815 2.778-3.962-0.1471-0.1471-3.049 0.05281-6.449 0.4443l-6.182 0.7118 2.55 3.25c1.402 1.788 2.934 3.25 3.404 3.25 0.4701 0 2.225-1.662 3.9-3.694zm4.493-8.887c1.885-4.912-0.4072-13.32-5.023-18.43-3.262-3.611-11.71-7.98-12.98-6.713-0.31 0.31-0.2448 5.06 0.1448 10.55l0.7083 9.991 4.747-3.41c2.611-1.876 5.069-3.41 5.463-3.41 0.3936 0-0.9514 2.271-2.989 5.047s-3.431 5.321-3.096 5.656c0.6739 0.6739 6.931 2.003 10.27 2.182 1.179 0.06325 2.416-0.5968 2.75-1.467z"/>
</svg>
