<?xml version="1.0" encoding="UTF-8" standalone="no"?>
<svg id="svg3709" xmlns="http://www.w3.org/2000/svg" height="297mm" viewBox="0 0 744.09448819 1052.3622047" width="210mm" version="1.1">
	<g id="layer1" transform="translate(-663.9 -677.6)">
		<path id="path3787" d="m692.3 733.3c-1.371-3.59-2.463-4.919-4.427-5.39-13.15-3.153-21.97-17.08-19.05-30.08 0.9743-4.348 0.8674-4.771-2.152-8.529l-3.178-3.954 5.005 0.6883c4.549 0.6256 5.267 0.4409 7.888-2.026 9.48-8.927 26.11-8.814 35.57 0.2408 2.374 2.273 3.21 2.491 7.25 1.885 5.182-0.7771 5.671 0.0515 2.043 3.46-2.386 2.242-2.489 2.761-1.875 9.531 1.23 13.57-5.071 23.75-17.31 27.96-3.982 1.369-4.467 1.919-6.6 7.489l-1.34 3.498-1.82-4.765zm3.035-9.482c2.366-10.69 6.974-19.47 14.12-26.9 2.962-3.083 5.186-5.804 4.943-6.048-0.2435-0.2435-2.623 0.3295-5.288 1.273-6.418 2.273-22.87 2.307-29.84 0.0601-2.75-0.886-5.409-1.616-5.909-1.622-0.4997-0.006 1.861 2.873 5.245 6.398 6.723 7.001 12.63 17.85 13.74 25.23 0.7429 4.954 2.097 5.683 2.998 1.613zm-5.963-1.5c-1.706-8.636-13.27-26.75-17.08-26.75-3.189 0-2.863 11.33 0.5173 18 2.93 5.783 10.72 11.86 15.33 11.96 1.585 0.0338 1.776-0.463 1.233-3.21zm17.16 0.5c7.398-4.997 11.24-11.84 11.21-19.97-0.0252-7.877-1.18-8.488-6.386-3.379-5.022 4.929-9.642 12.99-11.95 20.85l-1.541 5.25h2.296c1.263 0 4.128-1.238 6.367-2.75zm0.5828-33.32c2.556-0.6435 4.647-1.564 4.647-2.045 0-1.785-8.256-6.776-12.8-7.739-2.601-0.5511-6.553-0.6512-8.852-0.2241-4.969 0.9232-13.35 5.623-13.35 7.488 0 1.205 4.435 2.813 11 3.988 3.679 0.6587 14.02-0.126 19.35-1.468z"/>
	</g>
</svg>
